# xmcd CD database file
#
# Track frame offsets:
#	150
#	24909
#	43966
#	62271
#	81616
#	102582
#	126980
#	142622
#	167011
#	197923
#
# Disc length: 2771 seconds
#
# Revision: 0
# Processed by: cddbd v1.5.2PL0 Copyright (c) Steve Scherf et al.
# Submitted via: CDex 1.50
#
DISCID=870ad10a
DTITLE=Rob Lamothe Craig Erickson - The Voodoo Brothers 
DYEAR=2003
DGENRE=Blues
TTITLE0=Deep River
TTITLE1=Ride
TTITLE2=Connection
TTITLE3=Hide With You
TTITLE4=Too Good For Me
TTITLE5=Which Way To Go
TTITLE6=Everybody's Crazy
TTITLE7=Walk Away
TTITLE8=Echo Hill
TTITLE9=Walk Away Jam - Outro
EXTD=YEAR: 2003
EXTT0=
EXTT1=
EXTT2=
EXTT3=
EXTT4=
EXTT5=
EXTT6=
EXTT7=
EXTT8=
EXTT9=
PLAYORDER=
